<?xml version="1.0" encoding="iso-8859-1"?>
<!-- Generator: Adobe Illustrator 19.0.0, SVG Export Plug-In . SVG Version: 6.00 Build 0)  -->
<svg xmlns="http://www.w3.org/2000/svg" xmlns:xlink="http://www.w3.org/1999/xlink" version="1.1" id="Layer_1" x="0px" y="0px" viewBox="0 0 512.303 512.303" style="enable-background:new 0 0 512.303 512.303;" xml:space="preserve" width="512" height="512">
<g id="XMLID_1162_">
	<g id="XMLID_174_">
		<g id="XMLID_175_">
			<g id="XMLID_176_">
				<path id="XMLID_186_" d="M512.254,211.28c-0.003-5.521-4.479-9.995-10-9.995h-43.315c-4.702-17.47-11.644-34.207-20.708-49.932      l30.587-30.587c1.875-1.875,2.929-4.42,2.929-7.073s-1.055-5.197-2.932-7.072l-63.292-63.245      c-3.905-3.902-10.235-3.901-14.14,0.003L360.82,73.944c-15.725-9.064-32.461-16.004-49.931-20.707V10.025      c0-5.523-4.477-10-10-10h-89.475c-5.523,0-10,4.477-10,10v43.212c-17.47,4.702-34.207,11.643-49.931,20.707l-30.564-30.564      c-3.904-3.903-10.234-3.905-14.14-0.002l-63.292,63.245c-1.876,1.875-2.931,4.419-2.932,7.072s1.053,5.197,2.929,7.073      l30.587,30.587c-9.064,15.725-16.005,32.461-20.708,49.932H10.049c-5.521,0-9.997,4.474-10,9.995L0,300.755      c-0.001,2.653,1.051,5.198,2.927,7.075c1.875,1.876,4.419,2.931,7.073,2.931h43.363c4.702,17.47,11.644,34.208,20.708,49.933      L43.38,391.384c-3.904,3.904-3.906,10.234-0.003,14.14l63.245,63.292c1.875,1.876,4.419,2.931,7.072,2.932      c0.001,0,0.001,0,0.002,0c2.652,0,5.196-1.054,7.071-2.929l30.714-30.714c15.725,9.064,32.462,16.006,49.934,20.708v43.466      c0,5.523,4.477,10,10,10h89.475c5.523,0,10-4.477,10-10v-43.466c17.471-4.703,34.209-11.644,49.934-20.708l30.715,30.714      c1.875,1.875,4.42,2.929,7.073,2.929s5.197-1.055,7.072-2.932l63.245-63.292c3.903-3.906,3.901-10.235-0.003-14.14      l-30.691-30.691c9.064-15.725,16.005-32.462,20.708-49.933h43.364c2.653,0,5.197-1.054,7.073-2.931      c1.875-1.877,2.928-4.422,2.927-7.075L512.254,211.28z M451.124,290.76c-4.665,0-8.709,3.225-9.749,7.772      c-4.728,20.689-12.874,40.333-24.21,58.386c-2.481,3.95-1.901,9.091,1.397,12.39l29.15,29.15l-49.108,49.145l-29.168-29.168      c-3.298-3.297-8.439-3.878-12.389-1.397c-18.053,11.337-37.697,19.483-58.386,24.211c-4.547,1.039-7.772,5.084-7.772,9.749      v41.282h-69.475v-41.282c0-4.665-3.225-8.709-7.772-9.749c-20.689-4.728-40.333-12.874-58.386-24.211      c-3.951-2.481-9.091-1.9-12.39,1.397l-29.168,29.168L64.59,398.458l29.15-29.15c3.299-3.298,3.878-8.439,1.398-12.389      C83.8,338.865,75.655,319.22,70.927,298.532c-1.039-4.547-5.084-7.772-9.749-7.772H20.005l0.039-69.475H61.18      c4.665,0,8.709-3.225,9.749-7.772c4.728-20.688,12.874-40.332,24.211-58.384c2.481-3.95,1.901-9.091-1.397-12.39l-29.042-29.042      l49.144-49.107l29.024,29.024c3.298,3.298,8.439,3.878,12.389,1.397c18.052-11.337,37.695-19.482,58.383-24.21      c4.547-1.039,7.772-5.084,7.772-9.749V20.025h69.475v41.028c0,4.665,3.225,8.709,7.772,9.749      c20.688,4.728,40.331,12.873,58.384,24.21c3.951,2.481,9.091,1.901,12.39-1.398l29.023-29.023l49.145,49.108l-29.042,29.041      c-3.298,3.299-3.878,8.439-1.397,12.39c11.338,18.053,19.483,37.696,24.211,58.384c1.039,4.547,5.084,7.772,9.749,7.772h41.136      l0.039,69.475H451.124z"/>
				<path id="XMLID_185_" d="M365.046,147.13c-29.087-29.087-67.76-45.105-108.895-45.105s-79.808,16.019-108.894,45.105      c-29.087,29.087-45.106,67.76-45.106,108.895s16.019,79.808,45.105,108.894c24.073,24.073,54.587,39.192,88.244,43.723      c6.776,0.912,13.6,1.363,20.419,1.363c25.954,0,51.815-6.534,74.492-19.025c4.837-2.665,6.599-8.747,3.935-13.584      c-2.666-4.837-8.747-6.598-13.584-3.935c-51.892,28.584-117.424,19.256-159.364-22.685      c-25.309-25.309-39.248-58.959-39.248-94.752s13.938-69.443,39.248-94.752c25.309-25.31,58.959-39.248,94.752-39.248      s69.443,13.938,94.752,39.248c42.025,42.024,51.302,107.651,22.56,159.591c-2.674,4.832-0.925,10.917,3.908,13.591      c4.833,2.674,10.918,0.924,13.591-3.908c15.856-28.652,22.187-62.401,17.826-95.028      C404.282,201.805,389.156,171.24,365.046,147.13z"/>
				<path id="XMLID_184_" d="M357.971,347.851c-2.63,0-5.21,1.06-7.07,2.92c-1.86,1.86-2.93,4.44-2.93,7.08      c0,2.63,1.07,5.21,2.93,7.07c1.86,1.86,4.44,2.93,7.07,2.93c2.64,0,5.21-1.07,7.07-2.93c1.87-1.86,2.93-4.44,2.93-7.07      c0-2.64-1.06-5.21-2.93-7.08C363.181,348.911,360.601,347.851,357.971,347.851z"/>
				<path id="XMLID_183_" d="M363.151,246.147h-9.271c-5.523,0-10,4.477-10,10s4.477,10,10,10h9.271c5.523,0,10-4.477,10-10      S368.674,246.147,363.151,246.147z"/>
				<path id="XMLID_182_" d="M149.151,245.903c-5.523,0-10,4.477-10,10s4.477,10,10,10h9.271c5.523,0,10-4.477,10-10      s-4.477-10-10-10H149.151z"/>
				<path id="XMLID_181_" d="M266.273,158.296v-9.271c0-5.523-4.477-10-10-10s-10,4.477-10,10v9.271c0,5.523,4.477,10,10,10      S266.273,163.819,266.273,158.296z"/>
				<path id="XMLID_180_" d="M246.029,353.754v9.271c0,5.523,4.477,10,10,10s10-4.477,10-10v-9.271c0-5.523-4.477-10-10-10      S246.029,348.231,246.029,353.754z"/>
				<path id="XMLID_177_" d="M324.494,173.54l-55.333,55.333c-3.94-1.895-8.353-2.959-13.009-2.959s-9.069,1.063-13.009,2.959      l-26.964-26.964c-3.905-3.905-10.237-3.905-14.143,0c-3.905,3.905-3.905,10.237,0,14.143L229,243.016      c-1.895,3.94-2.959,8.353-2.959,13.009c0,16.603,13.507,30.11,30.11,30.11s30.11-13.507,30.11-30.11      c0-4.657-1.063-9.069-2.959-13.009l55.333-55.333c3.905-3.905,3.905-10.237,0-14.143S328.399,169.635,324.494,173.54z       M256.151,266.135c-5.575,0-10.11-4.536-10.11-10.11s4.536-10.11,10.11-10.11s10.11,4.536,10.11,10.11      S261.726,266.135,256.151,266.135z"/>
			</g>
		</g>
	</g>
</g>















</svg>
