<svg height="503pt" viewBox="0 0 503.90748 503" width="503pt" xmlns="http://www.w3.org/2000/svg"><path d="m318.949219 193.515625c9.261719-.027344 16.761719-7.527344 16.789062-16.789063-.070312-9.242187-7.542969-16.714843-16.789062-16.785156h-.082031c.082031-1.425781.082031-11.246094.082031-12.589844-1.179688-77.636718-65.050781-139.628906-142.6875-138.492187-77.636719-1.136719-141.503907 60.855469-142.6875 138.492187 0 1.34375 0 11.164063.082031 12.589844h-.082031c-9.242188.070313-16.71875 7.542969-16.789063 16.785156.03125 9.261719 7.527344 16.761719 16.789063 16.789063 0 0 8.394531 41.96875-8.394531 75.539063-14.941407 29.882812-9.902344 66.476562 15.109374 85.949218l.082032.085938c12.636718-11.996094 28.214844-20.449219 45.160156-24.507813h29.792969l54.8125 50.359375 6.125 5.621094 5.875-5.957031 49.605469-50.023438h35.253906c16.867187 4.03125 32.382812 12.425781 44.988281 24.339844l22.410156-65.050781c-1.359375-7.234375-3.730469-14.242188-7.050781-20.816406-16.785156-33.570313-8.394531-75.539063-8.394531-75.539063zm0 0" fill="#af8066"/><path d="m334.394531 289.871094 9.738281 96.691406c-12.421874-11.75-60.015624-51.871094-77.136718-55.980469h-35.253906l-49.605469 50.023438-5.875 5.957031-6.125-5.621094-54.8125-50.359375h-29.792969c-16.945312 4.058594-32.523438 12.511719-45.160156 24.507813l-.082032-.085938c-25.011718-19.472656-30.050781-56.066406-15.109374-85.949218 16.789062-33.570313 8.394531-75.539063 8.394531-75.539063h19.21875c-.417969-1.847656-.753907-3.609375-1.003907-5.371094.335938 1.675781.671876 3.273438 1.003907 4.949219.921875 4.230469 2.070312 8.40625 3.441406 12.507812l1.511719 4.027344c.589844 1.34375 1.09375 2.6875 1.679687 4.03125 4.773438 10.851563 11.230469 20.878906 19.136719 29.710938 1.847656 2.097656 3.859375 4.199218 5.875 6.128906.925781.921875 1.847656 1.847656 2.769531 2.683594 2.015625 1.765625 4.113281 3.609375 6.210938 5.289062.167969.085938.335937.253906.503906.335938 2.183594 1.761718 4.449219 3.441406 6.800781 5.035156 2.433594 1.679688 4.949219 3.273438 7.554688 4.785156 2.515625 1.511719 5.203125 2.9375 7.886718 4.28125 2.183594 1.089844 4.449219 2.183594 6.714844 3.105469l3.023438 1.257813c1.929687.757812 3.859375 1.511718 5.789062 2.097656.785156.355468 1.601563.636718 2.4375.839844 2 .742187 4.046875 1.359374 6.125 1.847656.957032.332031 1.941406.582031 2.9375.753906.464844.152344.945313.265625 1.429688.335938 1.761718.503906 3.523437.839843 5.285156 1.175781 1.34375.253906 2.6875.503906 3.945312.671875 1.679688.335937 3.441407.589844 5.121094.757812 1.5.25 3.011719.417969 4.53125.5 2.097656.253906 4.195313.335938 6.296875.421875 2.097657.082031 4.28125.167969 6.460938.167969 2.183593 0 4.28125-.085938 6.464843-.167969 2.179688-.085937 4.195313-.167969 6.292969-.421875 1.519531-.082031 3.03125-.25 4.535157-.5 1.675781-.167968 3.441406-.421875 5.117187-.757812 1.261719-.167969 2.601563-.417969 3.945313-.671875 1.761718-.335938 3.527343-.671875 5.289062-1.175781.484375-.070313.960938-.183594 1.425781-.335938.972657-.171875 1.925781-.421875 2.855469-.753906 2.414062-.601563 4.796875-1.328125 7.132812-2.183594.167969 0 .253907 0 .335938-.082031 2.6875-.839844 5.203125-1.847657 7.804688-2.855469.757812-.335938 1.429687-.585938 2.183593-.921875 4.980469-2.148437 9.828125-4.585937 14.519531-7.300781 4.914063-2.898438 9.625-6.121094 14.101563-9.652344.335937-.253906.589844-.503906.925781-.757812 2.097656-1.679688 4.195313-3.441407 6.210938-5.289063 2.179687-2.011719 4.195312-4.027344 6.210937-6.125 2.011719-2.097656 3.859375-4.28125 5.707031-6.464844 1.34375-1.675781 2.601563-3.355469 3.945313-5.117187 4.621094-6.398438 8.5625-13.261719 11.75-20.480469.585937-1.261719 1.089844-2.519531 1.679687-3.863281 2.117188-5.335938 3.800782-10.839844 5.035157-16.449219h19.21875s-8.390625 41.96875 8.394531 75.539063c3.320312 6.574218 5.691406 13.582031 7.050781 20.816406zm0 0" fill="#a4c2f7"/><path d="m344.132812 386.5625c-4.703124-4.445312-14.355468-12.839844-25.433593-21.90625l-7.554688-74.785156c-1.359375-7.234375-3.730469-14.242188-7.050781-20.816406-8.074219-17.828126-11.648438-37.371094-10.40625-56.90625.335938-.671876.671875-1.425782 1.007812-2.183594 2.117188-5.335938 3.800782-10.839844 5.035157-16.449219h19.21875s-8.390625 41.96875 8.394531 75.539063c3.320312 6.574218 5.691406 13.582031 7.050781 20.816406zm0 0" fill="#7facfa"/><path d="m213.613281 330.582031-12.171875 18.210938-25.179687 37.769531-25.179688-37.769531-12.171875-18.210938zm0 0" fill="#e8edfc"/><path d="m151.082031 283.578125h50.359375v65.214844h-50.359375zm0 0" fill="#e8edfc"/><path d="m344.132812 465.546875v13.34375c-.027343 9.261719-7.527343 16.761719-16.789062 16.789063h-302.164062c-9.257813-.027344-16.757813-7.527344-16.785157-16.789063v-50.359375c.195313-46.480469 31.996094-86.863281 77.136719-97.949219h29.792969l48.769531 44.820313 6.042969 5.539062 6.125 5.621094 5.875-5.957031 49.605469-50.023438h35.253906c16.867187 4.03125 32.382812 12.425781 44.988281 24.339844 2.265625 2.097656 4.449219 4.28125 6.546875 6.628906l18.382812 74.785157zm0 0" fill="#cad9fc"/><path d="m320.882812 465.546875v13.34375c-.027343 9.261719-7.527343 16.761719-16.789062 16.789063h-278.914062c-9.257813-.027344-16.757813-7.527344-16.785157-16.789063v-50.359375c.195313-46.480469 31.996094-86.863281 77.136719-97.949219h6.546875l54.808594 50.359375 6.125 5.621094 5.875-5.957031 5.207031-5.203125 6.042969 5.539062 6.125 5.621094 5.875-5.957031 49.605469-50.023438h12.003906c16.867187 4.03125 32.382812 12.425781 44.988281 24.339844 2.265625 2.097656 4.449219 4.28125 6.546875 6.628906l18.382812 74.785157zm0 0" fill="#e8edfc"/><path d="m176.261719 386.5625-25.933594 32.417969c-1.730469 2.15625-4.410156 3.324219-7.167969 3.121093-2.757812-.203124-5.238281-1.75-6.632812-4.136718l-47.691406-81.761719c-1.230469-2.109375-1.484376-4.652344-.6875-6.960937.792968-2.3125 2.554687-4.160157 4.824218-5.066407l26.632813-10.632812c3.691406-1.449219 7.890625-.121094 10.074219 3.1875l9.230468 13.851562 12.171875 18.210938zm0 0" fill="#e8edfc"/><path d="m263.6875 336.203125-47.691406 81.746094c-1.394532 2.386719-3.875 3.933593-6.632813 4.136719-2.757812.203124-5.4375-.964844-7.164062-3.121094l-25.9375-32.402344 25.179687-37.769531 12.171875-18.210938 9.234375-13.851562c2.179688-3.308594 6.382813-4.636719 10.070313-3.1875l26.632812 10.648437c2.265625.90625 4.023438 2.753906 4.816407 5.058594.796874 2.308594.546874 4.84375-.679688 6.953125zm0 0" fill="#e8edfc"/><path d="m56.234375 205.601562c-1.4375-3.941406-2.585937-7.980468-3.441406-12.085937-.417969-1.847656-.753907-3.609375-1.003907-5.371094.335938 1.675781.671876 3.273438 1.003907 4.949219.921875 4.230469 2.070312 8.40625 3.441406 12.507812zm0 0" fill="#e8edfc"/><path d="m318.949219 147.351562c0 1.34375 0 11.164063-.082031 12.589844h-17.289063c-.253906-3.023437-.757813-6.042968-1.261719-9.066406-.503906-2.347656-1.007812-4.699219-1.675781-7.050781 0-.082031-.085937-.167969-.085937-.25v-.082031c-5.589844-12.246094-12.847657-23.660157-21.570313-33.910157-69.5 5.789063-107.101563-20.398437-123.550781-37.183593-4.105469-3.9375-7.714844-8.363282-10.746094-13.179688-1.152344 3.472656-2.761719 6.773438-4.78125 9.820312-7.722656 12.421876-26.777344 33.828126-70.339844 46.5-2.851562.925782-5.789062 1.679688-8.8125 2.433594l-4.449218 24.175782v.082031c-.753907 2.855469-1.511719 5.707031-2.097657 8.644531-.585937 2.9375-1.007812 6.042969-1.257812 9.066406h-17.292969c-.082031-1.425781-.082031-11.246094-.082031-12.589844 1.183593-77.636718 65.050781-139.628906 142.6875-138.492187 77.636719-1.136719 141.507812 60.855469 142.6875 138.492187zm0 0" fill="#a4c2f7"/><path d="m318.949219 147.351562c0 1.34375 0 11.164063-.082031 12.589844h-17.289063c-.253906-3.023437-.757813-6.042968-1.261719-9.066406-.503906-2.347656-1.007812-4.699219-1.675781-7.050781 0-.082031-.085937-.167969-.085937-.25v-.082031c-.894532-2.667969-2.019532-5.25-3.355469-7.722657-6.773438-68.402343-62.019531-121.871093-130.605469-126.40625 3.863281-.335937 7.722656-.503906 11.667969-.503906 77.636719-1.136719 141.507812 60.855469 142.6875 138.492187zm0 0" fill="#7facfa"/><path d="m302.164062 170.769531c-.011718 3.980469-.234374 7.960938-.671874 11.917969-.417969 3.691406-1.007813 7.21875-1.761719 10.828125-1.234375 5.609375-2.917969 11.113281-5.035157 16.449219-.589843 1.34375-1.09375 2.601562-1.679687 3.863281-3.1875 7.21875-7.128906 14.082031-11.75 20.480469-1.34375 1.761718-2.601563 3.441406-3.945313 5.117187-1.847656 2.183594-3.777343 4.367188-5.707031 6.464844-1.933593 2.097656-4.03125 4.113281-6.210937 6.125-2.015625 1.847656-4.113282 3.609375-6.210938 5.289063-.335937.253906-.589844.503906-.925781.757812-4.476563 3.53125-9.1875 6.753906-14.101563 9.652344-4.691406 2.714844-9.539062 5.152344-14.519531 7.300781-.753906.335937-1.425781.585937-2.183593.921875-2.601563 1.007812-5.117188 2.015625-7.804688 2.855469-.082031.082031-.167969.082031-.335938.082031-2.335937.855469-4.71875 1.582031-7.132812 2.183594-.929688.332031-1.882812.582031-2.855469.753906-.464843.152344-.941406.265625-1.425781.335938-1.761719.503906-3.527344.839843-5.289062 1.175781-1.34375.253906-2.683594.503906-3.945313.671875-1.675781.335937-3.441406.589844-5.117187.757812-1.503907.25-3.015626.417969-4.535157.5-2.097656.253906-4.195312.335938-6.292969.421875-2.097656.082031-4.28125.167969-6.464843.167969-2.179688 0-4.28125-.085938-6.460938-.167969-1.679687-.085937-3.441406-.167969-5.121093-.335937-.394532.011718-.789063-.015625-1.175782-.085938-1.519531-.082031-3.03125-.25-4.53125-.5-1.679687-.167968-3.441406-.421875-5.121094-.757812-1.257812-.167969-2.601562-.417969-3.945312-.671875-1.761719-.335938-3.523438-.671875-5.285156-1.175781-.484375-.070313-.964844-.183594-1.429688-.335938-.996094-.171875-1.980468-.421875-2.9375-.753906-2.078125-.488282-4.125-1.105469-6.125-1.847656-.835937-.203126-1.652344-.484376-2.4375-.839844-1.929687-.585938-3.859375-1.339844-5.789062-2.097656l-3.023438-1.257813c-2.265625-.921875-4.53125-2.015625-6.714844-3.105469-2.683593-1.34375-5.371093-2.769531-7.886718-4.28125-2.519532-1.511718-5.121094-3.105468-7.554688-4.785156-2.433594-1.675781-4.617187-3.273438-6.800781-5.035156-.167969-.082032-.335937-.25-.503906-.335938-2.097657-1.679687-4.195313-3.523437-6.210938-5.289062-.921875-.835938-1.84375-1.761719-2.769531-2.683594-2.015625-1.929688-4.027344-4.03125-5.875-6.128906-7.90625-8.832032-14.363281-18.859375-19.136719-29.710938-.585937-1.34375-1.089843-2.6875-1.679687-4.03125l-1.511719-4.027344c-1.371094-4.101562-2.519531-8.277343-3.441406-12.507812-.332031-1.675781-.667969-3.273438-1.003907-4.949219-.253906-1.847656-.589843-3.609375-.757812-5.457031-.433594-3.957031-.660156-7.9375-.671875-11.917969-.015625-3.617187.179687-7.234375.589844-10.828125.25-3.023437.753906-6.042968 1.257812-9.066406.503907-3.019531 1.34375-5.789062 2.097657-8.644531v-.082031l4.449218-24.175782c3.023438-.753906 5.960938-1.507812 8.8125-2.433594 36.679688-10.660156 55.984375-27.53125 65.804688-40.035156 1.636718-2.0625 3.152344-4.222656 4.535156-6.464844 2.019531-3.046874 3.628906-6.347656 4.78125-9.820312 3.03125 4.816406 6.640625 9.242188 10.746094 13.179688 13.847656 14.101562 42.636718 34.917968 92.832031 37.6875 2.601563.167968 5.285156.25 8.054687.25 7.5625.152343 15.128907-.097657 22.664063-.753907 8.722656 10.25 15.980469 21.664063 21.570313 33.910157v.082031c0 .082031.085937.167969.085937.25.585937 2.351562 1.171875 4.703125 1.675781 7.050781.503906 3.023438 1.007813 6.042969 1.261719 9.066406.40625 3.59375.605469 7.210938.585937 10.828125zm0 0" fill="#cad9fc"/><path d="m278.914062 170.769531c-.011718 3.980469-.234374 7.960938-.671874 11.917969-.417969 3.691406-1.007813 7.21875-1.761719 10.828125-1.234375 5.609375-2.917969 11.113281-5.035157 16.449219-.589843 1.34375-1.09375 2.601562-1.679687 3.863281-3.1875 7.21875-7.128906 14.082031-11.75 20.480469-1.34375 1.761718-2.601563 3.441406-3.945313 5.117187-1.847656 2.183594-3.777343 4.367188-5.707031 6.464844-1.933593 2.097656-4.03125 4.113281-6.210937 6.125-2.015625 1.847656-4.113282 3.609375-6.210938 5.289063-.335937.253906-.589844.503906-.925781.757812-4.476563 3.53125-9.1875 6.753906-14.101563 9.652344-4.691406 2.714844-9.539062 5.152344-14.519531 7.300781-.753906.335937-1.425781.585937-2.183593.921875-2.601563 1.007812-5.117188 2.015625-7.804688 2.855469-.082031.082031-.167969.082031-.335938.082031-2.335937.855469-4.71875 1.582031-7.132812 2.183594-.929688.332031-1.882812.582031-2.855469.753906-.464843.152344-.941406.265625-1.425781.335938-1.761719.503906-3.527344.839843-5.289062 1.175781-1.34375.253906-2.683594.503906-3.945313.671875-1.675781.335937-3.441406.589844-5.117187.757812-1.503907.25-3.015626.417969-4.535157.5-.359375.070313-.722656.097656-1.089843.085938-.394532.011718-.789063-.015625-1.175782-.085938-1.519531-.082031-3.03125-.25-4.53125-.5-1.679687-.167968-3.441406-.421875-5.121094-.757812-1.257812-.167969-2.601562-.417969-3.945312-.671875-1.761719-.335938-3.523438-.671875-5.285156-1.175781-.484375-.070313-.964844-.183594-1.429688-.335938-.996094-.171875-1.980468-.421875-2.9375-.753906-2.078125-.488282-4.125-1.105469-6.125-1.847656-.835937-.203126-1.652344-.484376-2.4375-.839844-1.929687-.585938-3.859375-1.339844-5.789062-2.097656l-3.023438-1.257813c-2.265625-.921875-4.53125-2.015625-6.714844-3.105469-2.683593-1.34375-5.371093-2.769531-7.886718-4.28125-2.519532-1.511718-5.121094-3.105468-7.554688-4.785156-2.433594-1.675781-4.617187-3.273438-6.800781-5.035156-.167969-.082032-.335937-.25-.503906-.335938-2.097657-1.679687-4.195313-3.523437-6.210938-5.289062-.921875-.835938-1.84375-1.761719-2.769531-2.683594-2.015625-1.929688-4.027344-4.03125-5.875-6.128906-7.90625-8.832032-14.363281-18.859375-19.136719-29.710938-.585937-1.34375-1.089843-2.6875-1.679687-4.03125l-1.511719-4.027344c-1.371094-4.101562-2.519531-8.277343-3.441406-12.507812-.332031-1.675781-.667969-3.273438-1.003907-4.949219-.253906-1.847656-.589843-3.609375-.757812-5.457031-.433594-3.957031-.660156-7.9375-.671875-11.917969-.015625-3.617187.179687-7.234375.589844-10.828125.25-3.023437.753906-6.042968 1.257812-9.066406.503907-3.019531 1.34375-5.789062 2.097657-8.644531v-.082031l4.449218-24.175782c3.023438-.753906 5.960938-1.507812 8.8125-2.433594 36.679688-10.660156 55.984375-27.53125 65.804688-40.035156 17.125 16.03125 52.125 37.769532 112.894531 34.582032 2.433594-.085938 4.949219-.253907 7.46875-.503907.21875.234375.414063.484375.585937.753907 8.550782 9.988281 15.617188 21.152343 20.984376 33.15625v.082031c0 .082031.085937.167969.085937.25.585937 2.351562 1.171875 4.703125 1.675781 7.050781.503906 3.023438 1.007813 6.042969 1.261719 9.066406.40625 3.59375.605469 7.210938.585937 10.828125zm0 0" fill="#e8edfc"/><path d="m427.140625 458.582031v.082031l-10.992187 31.726563-111.046876-38.355469c-7.761718-2.683594-12.453124-10.574218-11.101562-18.675781 1.347656-8.097656 8.347656-14.039063 16.558594-14.058594 1.855468.011719 3.699218.324219 5.453125.921875zm0 0" fill="#a4c2f7"/><path d="m52.792969 193.515625h-19.21875c-9.261719-.027344-16.757813-7.527344-16.789063-16.789063.070313-9.242187 7.546875-16.714843 16.789063-16.785156h17.375c-.410157 3.59375-.605469 7.210938-.589844 10.828125.011719 3.980469.238281 7.960938.671875 11.917969.167969 1.847656.503906 3.609375.757812 5.457031.25 1.84375.585938 3.523438 1.003907 5.371094zm0 0" fill="#e8edfc"/><path d="m335.738281 176.726562c-.027343 9.261719-7.527343 16.761719-16.789062 16.789063h-19.21875c.753906-3.609375 1.34375-7.136719 1.761719-10.828125.4375-3.957031.660156-7.9375.671874-11.917969.019532-3.617187-.179687-7.234375-.585937-10.828125h17.371094c9.246093.070313 16.71875 7.542969 16.789062 16.785156zm0 0" fill="#cad9fc"/><path d="m159.476562 159.941406c0 18.542969-15.03125 33.574219-33.574218 33.574219-6.710938.039063-13.273438-1.984375-18.800782-5.792969-11.789062-7.863281-17.371093-22.28125-13.949218-36.03125 3.421875-13.753906 15.105468-23.875 29.207031-25.300781 14.097656-1.425781 27.574219 6.15625 33.675781 18.945313 2.304688 4.519531 3.488282 9.53125 3.441406 14.605468zm0 0" fill="#fff"/><path d="m260.195312 159.941406c0 18.542969-15.03125 33.574219-33.570312 33.574219-18.5-.105469-33.46875-15.074219-33.574219-33.574219.050781-15.628906 10.882813-29.152344 26.121094-32.621094s30.855469 4.035157 37.667969 18.101563c2.230468 4.511719 3.382812 9.484375 3.355468 14.519531zm0 0" fill="#fff"/><path d="m159.476562 159.941406c0 18.542969-15.03125 33.574219-33.574218 33.574219-6.710938.039063-13.273438-1.984375-18.800782-5.792969 3.609376-16.785156 14.9375-38.523437 48.933594-42.386718 2.304688 4.519531 3.488282 9.53125 3.441406 14.605468zm0 0" fill="#e8edfc"/><path d="m260.195312 159.941406c0 18.542969-15.03125 33.574219-33.570312 33.574219-6.476562.007813-12.8125-1.890625-18.214844-5.457031 4.214844-23.769532 24.316406-41.464844 48.429688-42.636719 2.230468 4.511719 3.382812 9.484375 3.355468 14.519531zm0 0" fill="#e8edfc"/><path d="m483.460938 301.121094-19.976563-6.882813-87.878906-30.46875c-5.734375-1.960937-12.011719-1.570312-17.457031 1.089844-5.464844 2.628906-9.636719 7.351563-11.582032 13.09375l-47.003906 136.226563-2.6875 7.636718c-.882812 2.5625-.332031 5.40625 1.445312 7.453125 1.777344 2.046875 4.511719 2.992188 7.175782 2.476563 2.664062-.515625 4.847656-2.414063 5.734375-4.976563 1.382812-3.953125 5.667969-6.078125 9.652343-4.785156l99.796876 34.496094c.335937.167969.671874.253906 1.007812.421875l14.351562 4.953125c.816407.261719 1.664063.402343 2.519532.417969 3.226562-.007813 6.09375-2.066407 7.132812-5.121094l47.253906-136.726563c2.703126-7.949219-1.539062-16.585937-9.484374-19.304687zm0 0" fill="#cad9fc"/><path d="m463.484375 294.238281-87.878906-30.46875c-5.734375-1.960937-12.011719-1.570312-17.457031 1.089844-5.464844 2.628906-9.636719 7.351563-11.582032 13.09375l-47.003906 136.226563 97.867188 33.742187c.320312.175781.65625.316406 1.007812.417969l14.351562 4.953125c.789063.253906 1.609376.394531 2.433594.417969 3.25-.007813 6.140625-2.054688 7.21875-5.117188l47.171875-136.730469c2.324219-6.585937-.222656-13.902343-6.128906-17.625zm0 0" fill="#e8edfc"/><path d="m25.179688 495.679688h25.179687c-9.257813-.027344-16.757813-7.527344-16.785156-16.789063v-50.359375c-.066407-27.871094 11.527343-54.503906 31.980469-73.441406l-.085938-.085938c-25.011719-19.472656-30.046875-56.066406-15.109375-85.949218 16.789063-33.570313 8.394531-75.539063 8.394531-75.539063-9.257812-.027344-16.757812-7.527344-16.785156-16.789063.066406-9.242187 7.542969-16.714843 16.785156-16.785156h.085938c-.085938-1.425781-.085938-11.246094-.085938-12.589844 1.007813-72.757812 57.519532-132.648437 130.097656-137.871093-4.152343-.359375-8.34375-.621094-12.589843-.621094-3.945313 0-7.804688.167969-11.667969.503906.136719 0 .269531 0 .40625.050781-73.128906 4.5625-130.402344 64.675782-131.425781 137.9375 0 1.34375 0 11.164063.082031 12.589844h-.082031c-9.242188.070313-16.71875 7.542969-16.789063 16.785156.03125 9.261719 7.527344 16.761719 16.789063 16.789063 0 0 8.394531 41.96875-8.394531 75.539063-14.941407 29.882812-9.902344 66.476562 15.109374 85.949218l.082032.085938c-20.449219 18.9375-32.046875 45.570312-31.976563 73.441406v50.359375c.027344 9.261719 7.527344 16.761719 16.785157 16.789063zm0 0" fill="#fff"/><path d="m25.179688 147.351562c.136718-39.128906 16.066406-76.546874 44.175781-103.769531 28.6875-27.707031 67.023437-43.167969 106.90625-43.117187v16.789062c-35.507813-.054687-69.644531 13.695313-95.199219 38.347656-24.867188 24.0625-38.964844 57.144532-39.09375 91.75zm0 0" fill="#fff"/><g fill="#428dff"><path d="m218.230469 462.105469c0 4.636719-3.757813 8.394531-8.394531 8.394531-4.636719 0-8.394532-3.757812-8.394532-8.394531s3.757813-8.394531 8.394532-8.394531c4.636718 0 8.394531 3.757812 8.394531 8.394531zm0 0"/><path d="m42.664062 87.160156c.273438.496094.617188.945313 1.015626 1.34375.320312.425782.707031.796875 1.140624 1.101563.464844.308593.945313.589843 1.445313.839843 2.03125.886719 4.3125 1.039063 6.445313.425782 1.007812-.34375 1.9375-.875 2.746093-1.570313 2.332031-2.125 3.347657-5.34375 2.660157-8.425781-.308594-1.039062-.804688-2.015625-1.460938-2.878906-1.648438-2.359375-4.414062-3.6875-7.285156-3.492188-2.871094.195313-5.433594 1.878906-6.75 4.441406-1.015625 2.085938-1.242188 4.472657-.628906 6.714844zm0 0"/><path d="m492.585938 294.75-119.011719-41.128906c-13.144531-4.539063-27.480469 2.433594-32.019531 15.578125l-2.285157 6.628906c-1.238281-3.609375-2.714843-7.136719-4.414062-10.558594-8.714844-20.351562-11.648438-42.714843-8.484375-64.628906 10.515625-3.226563 17.710937-12.914063 17.761718-23.914063-.019531-10.644531-6.746093-20.121093-16.789062-23.652343 0-2.625 0-5.085938 0-5.722657-1.269531-82.234374-68.84375-147.933593-151.082031-146.886718-39.882813-.050782-78.21875 15.410156-106.90625 43.117187l-6.085938 6.480469c-1.605469 1.636719-2.445312 3.875-2.304687 6.164062.136718 2.289063 1.242187 4.410157 3.035156 5.839844 3.503906 2.757813 8.519531 2.460938 11.675781-.6875l5.386719-5.777344c25.554688-24.652343 59.691406-38.402343 95.199219-38.347656 72.96875-1.058594 133.035156 57.132813 134.296875 130.097656v4.195313h-1.679688c-.125-.796875-.234375-1.535156-.378906-2.390625-.542969-2.601562-1.164062-5.210938-1.964844-8.082031-5.808594-13.394531-13.613281-25.828125-23.148437-36.882813-1.75-2.09375-4.410157-3.207031-7.132813-2.980468-93.746094 7.765624-125.0625-43.980469-126.3125-46.164063-1.671875-2.890625-4.898437-4.515625-8.21875-4.136719-3.324218.378906-6.113281 2.683594-7.109375 5.875-.46875 1.496094-12.050781 36.765625-77.898437 52.996094-3.203125.792969-5.648438 3.386719-6.246094 6.632812l-4.398438 23.945313c-.769531 2.914063-1.527343 5.875-2.214843 9.359375-.101563.59375-.191407 1.191406-.285157 1.789062h-1.601562v-4.199218c.117188-10.503906 1.476562-20.953125 4.042969-31.140625.917969-4.421875-1.664063-8.820313-5.976563-10.171875-2.167968-.664063-4.515625-.386719-6.476562.761718-1.957032 1.148438-3.34375 3.0625-3.820313 5.28125-2.90625 11.550782-4.4375 23.402344-4.558593 35.3125v5.714844c-3.507813 1.191406-6.691407 3.183594-9.300782 5.816406-4.824218 4.679688-7.527344 11.125-7.484375 17.84375.039063 11.011719 7.234375 20.710938 17.757813 23.941407 3.167968 21.914062.230468 44.273437-8.484375 64.628906-15.722657 29.226563-11.523438 65.164063 10.515625 89.976563-18.175782 20.066406-28.2265628 46.183593-28.183594 73.257812v50.359375c0 13.910156 11.273438 25.183594 25.179688 25.183594h302.164062c13.90625 0 25.179688-11.273438 25.179688-25.183594v-1.675781l60.894531 21.023437 15.875 5.472657c2.855469 1.070312 6.070312.507812 8.390625-1.472657 2.320312-1.980469 3.386718-5.066406 2.78125-8.054687-.609375-2.992188-2.792969-5.417969-5.699219-6.335938l-7.933594-2.746094 5.480469-15.863281 7.933594 2.746094c.878906.304687 1.804687.460937 2.734375.460937.117187 0 .226562-.050781.335937-.050781.285156 0 .539063-.089843.839844-.132812.710938-.089844 1.410156-.273438 2.074219-.546875.285156-.125.566406-.269532.839843-.425782.609376-.34375 1.171876-.765624 1.675782-1.25.230468-.195312.445312-.402343.648437-.621093.671875-.777344 1.199219-1.671875 1.550781-2.636719l52.039063-150.730469c1.457031-4.207031 1.179687-8.820312-.765625-12.828125-1.949219-4.003906-5.40625-7.070312-9.617188-8.523437zm-165.804688 17.265625-8.441406 24.457031v.101563l-3.359375 9.792969c-11.234375-9.8125-24.382813-17.195313-38.609375-21.679688-.832032-2.113281-2.484375-3.800781-4.582032-4.675781l-35.640624-14.269531c-7.371094-2.917969-15.78125-.304688-20.203126 6.28125l-6.109374 9.070312v-30.792969c45.777343-9.792969 82.652343-43.625 96.339843-88.390625h3.140625c-3 24.15625.636719 48.671875 10.523438 70.914063 6.132812 12.09375 8.546875 25.726562 6.941406 39.191406zm-150.519531 59.441406-16.785157-25.179687v-53.089844c5.570313.664062 11.175782 1.015625 16.785157 1.050781 5.613281-.035156 11.214843-.386719 16.789062-1.050781v53.089844zm-116.886719-189.691406c-.292969-2.820313-.445312-5.433594-.527344-7.964844 8.410156-2.839843 17.160156-4.566406 26.019532-5.136719 4.25 20.207032 22.613281 34.292969 43.234374 33.152344 20.621094-1.136718 37.324219-17.15625 39.324219-37.710937 2.492188-2.195313 5.558594-3.636719 8.835938-4.164063 3.273437.542969 6.328125 1.996094 8.8125 4.195313 2.011719 20.550781 18.710937 36.5625 39.324219 37.699219 20.617187 1.140624 38.980468-12.929688 43.242187-33.132813 8.839844.570313 17.566406 2.285156 25.960937 5.105469-.082031 2.566406-.148437 5.109375-.445312 7.921875-.382812 3.359375-.9375 6.714843-1.625 9.914062-10.953125 43.773438-47.042969 76.738281-91.625 83.691407-15.636719 2.820312-31.652344 2.820312-47.289062 0-44.714844-6.921876-80.871094-40.082032-91.621094-84.035157-.699219-3.175781-1.242188-6.355469-1.621094-9.535156zm66.527344-47.003906c13.90625 0 25.179687 11.273437 25.179687 25.179687s-11.273437 25.179688-25.179687 25.179688-25.179688-11.273438-25.179688-25.179688 11.273438-25.179687 25.179688-25.179687zm75.539062 25.179687c0-13.90625 11.273438-25.179687 25.183594-25.179687 13.90625 0 25.179688 11.273437 25.179688 25.179687s-11.273438 25.179688-25.179688 25.179688c-13.910156 0-25.183594-11.273438-25.183594-25.179688zm-35.5625 226.167969-22.097656 27.625-47.691406-81.726563 26.605468-10.644531zm63.949219-64.761719 26.609375 10.644532-47.691406 81.742187-22.101563-27.625zm89.121094-136.226562h-9.367188c.070313-.519532.195313-1.023438.253907-1.550782.46875-4.253906.710937-8.523437.722656-12.800781 0-.628906 0-1.175781-.042969-1.78125 0-.148437 0-.292969 0-.445312v-.207031h8.433594c2.265625-.007813 4.429687.921874 5.984375 2.566406 1.558594 1.539062 2.425781 3.640625 2.410156 5.824218 0 4.636719-3.757812 8.394532-8.394531 8.394532zm-256.550781-40.648438c.058593-.242187.117187-.480468.15625-.722656l3.484374-18.992188c47.054688-12.808593 68.660157-35.414062 78.058594-49.859374 15.746094 17.542968 54.484375 48.304687 129.117188 43.378906 7.003906 8.324218 12.808594 17.59375 17.242187 27.53125.628907 2.257812 1.164063 4.523437 1.617188 6.714844.1875 1.121093.371093 2.265624.539062 3.40625-8.136719-2.128907-16.453125-3.480469-24.84375-4.039063-3.585937-18.535156-19.140625-32.378906-37.96875-33.777344-18.828125-1.402343-36.265625 9.984375-42.550781 27.785157-6.882812-3.625-15.109375-3.625-21.992188 0-6.285156-17.800782-23.71875-29.1875-42.550781-27.785157-18.828125 1.398438-34.382812 15.242188-37.964843 33.777344-8.371094.554687-16.664063 1.902344-24.78125 4.023437.167968-1.117187.277343-2.25.464843-3.359374.5625-2.761719 1.265625-5.421876 1.972657-8.082032zm-34.648438 26.28125c1.53125-1.566406 3.632812-2.441406 5.824219-2.417968h8.460937v.191406.460937 1.78125c.011719 4.3125.257813 8.621094.730469 12.910157.058594.484374.175781.957031.242187 1.441406h-9.433593c-4.636719 0-8.394531-3.757813-8.394531-8.394532-.003907-2.257812.925781-4.421874 2.570312-5.972656zm4.984375 102.054688c9.867187-22.242188 13.488281-46.753906 10.484375-70.898438h3.179688c13.609374 44.796875 50.496093 78.65625 96.289062 88.398438v30.785156l-6.023438-9.039062c-4.421874-6.578126-12.828124-9.1875-20.195312-6.269532l-35.648438 14.269532c-1.996093.835937-3.585937 2.410156-4.441406 4.398437-13.054687 4.082031-25.222656 10.585937-35.863281 19.179687-17.222656-19.625-20.332031-47.929687-7.78125-70.824218zm-15.949219 206.082031v-50.359375c-.097656-40.417969 26.183594-76.167969 64.789063-88.128906l53.863281 92.324218c1.394531 2.390626 3.878906 3.9375 6.636719 4.140626h.613281c2.550781 0 4.960938-1.15625 6.554688-3.148438l18.625-23.226562v76.792968h-142.6875c-4.636719 0-8.394532-3.757812-8.394532-8.394531zm318.953125 0c0 4.636719-3.757812 8.394531-8.394531 8.394531h-142.6875v-76.792968l18.625 23.285156c1.59375 1.992187 4.003906 3.148437 6.554688 3.148437h.613281c2.757812-.203125 5.242187-1.75 6.640625-4.136719l53.792968-92.222656c13.296876 4.085938 25.492188 11.140625 35.664063 20.632813.839844.765625 1.601563 1.679687 2.414063 2.441406l-22.199219 64.296875c-4.539063 13.140625 2.433593 27.476562 15.578125 32.019531l33.398437 11.507813zm75.222657.789063-103.140626-35.621094c-4.292968-1.574219-6.53125-6.296875-5.039062-10.617188 1.492188-4.324218 6.171875-6.65625 10.519531-5.246094l103.140625 35.589844zm26.859374-26.253907-119.019531-41.128906c-2.703125-.902344-5.542969-1.34375-8.394531-1.300781l23.652344-68.480469c.050781-.125.085937-.25.125-.378906l23.285156-67.421875c1.511719-4.382813 6.289062-6.707032 10.667969-5.195313l119.003906 41.125zm0 0"/><path d="m334.898438 391.265625c-1.511719 4.382813.8125 9.160156 5.195312 10.675781 4.382812 1.511719 9.164062-.8125 10.675781-5.195312l32.878907-95.199219c1.511718-4.382813-.8125-9.164063-5.195313-10.675781-4.382813-1.515625-9.164063.8125-10.675781 5.195312zm0 0"/><path d="m399.257812 333.558594 47.601563 16.445312c2.835937.976563 5.976563.371094 8.242187-1.597656 2.265626-1.964844 3.308594-4.988281 2.742188-7.933594-.570312-2.945312-2.667969-5.363281-5.503906-6.34375l-47.597656-16.441406c-4.386719-1.511719-9.164063.8125-10.679688 5.195312-1.511719 4.382813.8125 9.164063 5.195312 10.675782zm0 0"/><path d="m388.304688 365.296875 47.601562 16.441406c4.382812 1.511719 9.160156-.816406 10.671875-5.199219 1.511719-4.382812-.816406-9.160156-5.199219-10.671874l-47.601562-16.433594c-2.855469-1.074219-6.070313-.507813-8.390625 1.472656-2.324219 1.980469-3.386719 5.0625-2.78125 8.054688.609375 2.992187 2.789062 5.414062 5.699219 6.335937zm0 0"/><path d="m430.414062 397.601562-47.597656-16.441406c-4.382812-1.511718-9.160156.816406-10.671875 5.199219s.816407 9.160156 5.199219 10.671875l47.597656 16.441406c4.386719 1.511719 9.164063-.816406 10.675782-5.199218 1.507812-4.382813-.820313-9.160157-5.203126-10.671876zm0 0"/></g></svg>